# xmcd
#
# Track frame offsets: 
#        150
#        18499
#        43171
#        70212
#        89669
#        110028
#        129001
#        145808
#        156422
#        176140
#        191147
#        219068
#        257014
#        272027
#
# Disc length: 3837 seconds
#
# Revision: 7
# Processed by: cddbd v1.5.2PL0 Copyright (c) Steve Scherf et al.
# Submitted via: ExactAudioCopyFreeDBPlugin 1.0
#
DISCID=d00efb0e
DTITLE=Raimundo Amador - Noche de Flamenco y Blues
DYEAR=1998
DGENRE=Flameco&Blues
TTITLE0=Raimundo Amador and Gran Wyoming - Pa mojar
TTITLE1=Candela
TTITLE2=Raimundo Amador and Kiko Veneno - Pata Palo
TTITLE3=Hoy no estoy pa nadie
TTITLE4=Ay que gustito pa mis orejas
TTITLE5=Blues de la frontera
TTITLE6=Raimundo Amador and Remedios Amaya - Camaron 
TTITLE7=Tio Diego
TTITLE8=Raimundo Amador and Charo Manzano - Pasa la vida
TTITLE9=Raimundo Amador and Juan Perro - Amor en vano
TTITLE10=Raimundo Amador and B.B. King - Bolleré
TTITLE11=Gitano de Temporá
TTITLE12=Little Wing
TTITLE13=Raimundo Amador and Antonio Carmona - Yo me quedo en Sevilla
EXTD=YEAR: 1998
EXTT0=Con Gran Wyoming
EXTT1=
EXTT2=Con Kiko Veneno
EXTT3=
EXTT4=
EXTT5=
EXTT6=Con Remedios Amaya
EXTT7=
EXTT8=Con Charo Manzano
EXTT9=Con Juan Perro
EXTT10=Con B.B. King
EXTT11=
EXTT12=
EXTT13=Con Antonio Carmona
PLAYORDER=
